<?xml version="1.0" encoding="UTF-8"?>
<svg version="1.1" xmlns="http://www.w3.org/2000/svg" width="2331" height="701">
<path d="M0 0 C19.119375 -0.0825 38.23875 -0.165 57.9375 -0.25 C66.94599243 -0.30462402 66.94599243 -0.30462402 76.13647461 -0.36035156 C83.54992676 -0.37841797 83.54992676 -0.37841797 87.03590393 -0.3817749 C89.43685382 -0.38786083 91.83779257 -0.40181008 94.23866272 -0.42230225 C121.58526686 -0.6437602 144.36564729 3.53435109 165.41796875 22.30078125 C167 24 167 24 167 26 C167.66 26 168.32 26 169 26 C169 26.66 169 27.32 169 28 C169.66 28 170.32 28 171 28 C191.00293784 52.59820734 194.13923749 86.51194833 191.77294922 116.91748047 C189.24882679 140.99680709 179.67181149 163.50846532 160.9375 179.25 C160.1630957 179.91902344 160.1630957 179.91902344 159.37304688 180.6015625 C156.6842354 182.86221928 154.54433984 184.55801997 151 185 C151 185.66 151 186.32 151 187 C128.99589396 198.19653376 107.26383495 200.77621423 82.8125 200.48828125 C80.67253273 200.48089889 78.5325563 200.47581715 76.39257812 200.47302246 C68.59491137 200.44716627 60.79743984 200.37736386 53 200.3125 C35.51 200.209375 18.02 200.10625 0 200 C0 134 0 68 0 0 Z M63 52 C63 83.68 63 115.36 63 148 C92.72188338 149.4082989 92.72188338 149.4082989 117.30078125 136.82421875 C128.69293994 124.59401621 129.52235043 108.74149479 129.08007812 92.95166016 C128.67697292 83.12719978 124.75623147 72.6865457 118.40234375 65.08984375 C117.03281076 63.79545466 117.03281076 63.79545466 115 64 C115 63.34 115 62.68 115 62 C101.59103675 48.96350795 79.4452884 52 63 52 Z " fill="#EA0027" transform="translate(480,120)"/>
<path d="M0 0 C55.77 0 111.54 0 169 0 C169 17.16 169 34.32 169 52 C134.02 52 99.04 52 63 52 C63 59.59 63 67.18 63 75 C97.98 75 132.96 75 169 75 C169 91.5 169 108 169 125 C134.02 125 99.04 125 63 125 C63 132.59 63 140.18 63 148 C97.98 148 132.96 148 169 148 C169 165.16 169 182.32 169 200 C113.23 200 57.46 200 0 200 C0 134 0 68 0 0 Z " fill="#EB0028" transform="translate(302,120)"/>
<path d="M0 0 C57.42 0 114.84 0 174 0 C174 17.16 174 34.32 174 52 C155.52 52 137.04 52 118 52 C118 100.84 118 149.68 118 200 C97.21 200 76.42 200 55 200 C55 151.16 55 102.32 55 52 C36.85 52 18.7 52 0 52 C0 34.84 0 17.68 0 0 Z " fill="#EA0028" transform="translate(120,120)"/>
<path d="M0 0 C0.92039062 -0.01160156 1.84078125 -0.02320313 2.7890625 -0.03515625 C14.26036754 0.01331405 24.79415621 3.50607593 33.23046875 11.484375 C37.06674743 15.65893717 40.26471518 20.02855554 43.08984375 24.94140625 C43.54037109 25.65103516 43.54037109 25.65103516 44 26.375 C44.33 26.375 44.66 26.375 45 26.375 C45.33 18.455 45.66 10.535 46 2.375 C49.37768474 1.24910509 52.00812072 1.24205725 55.5625 1.25 C56.71878906 1.24742187 57.87507812 1.24484375 59.06640625 1.2421875 C62 1.375 62 1.375 64 2.375 C65.19422156 5.64947429 65.12824047 8.86666365 65.13371277 12.3223114 C65.14011024 14.14902878 65.14011024 14.14902878 65.14663696 16.01264954 C65.14628744 17.35958866 65.1458259 18.70652775 65.14526367 20.0534668 C65.1482567 21.47473234 65.15165957 22.89599708 65.15544128 24.31726074 C65.16427962 28.17961674 65.16661958 32.04195058 65.16725707 35.90431571 C65.16796868 38.3239825 65.1701053 40.7436437 65.17275429 43.1633091 C65.18201336 51.62490825 65.18608925 60.08649165 65.18530273 68.5480957 C65.18470463 76.39928046 65.19520219 84.2503959 65.2110464 92.10156316 C65.2242012 98.86448952 65.22948319 105.62739349 65.22884732 112.39033252 C65.22859428 116.41892957 65.23133615 120.44746527 65.24202538 124.47604942 C65.35067005 168.5610968 65.35067005 168.5610968 59 179.375 C58.65195312 180.03371094 58.30390625 180.69242188 57.9453125 181.37109375 C52.08763872 191.73311669 43.78837859 197.76839206 33 202.375 C32.31164062 202.69210937 31.62328125 203.00921875 30.9140625 203.3359375 C14.39561616 210.37544417 -8.22289969 209.09985462 -24.8125 203.1875 C-37.33190927 197.93149341 -48.67913446 189.0988089 -54 176.375 C-50.52497453 172.29562227 -45.99035426 169.29909786 -41 167.375 C-37.97390686 167.48035721 -37.09797037 168.27553104 -34.95703125 170.44921875 C-34.24933594 171.31160156 -33.54164063 172.17398438 -32.8125 173.0625 C-23.81488974 183.42383373 -13.59538979 187.6354154 -0.09765625 188.67578125 C12.06285676 189.19905607 24.72683057 187.32818717 34.35546875 179.16796875 C41.99041881 170.8438783 44.3430525 161.49243268 44.1953125 150.5 C44.1924826 149.69006592 44.18965271 148.88013184 44.18673706 148.0456543 C44.17564715 145.48861166 44.15056452 142.93193465 44.125 140.375 C44.1149557 138.62891135 44.1058324 136.88281715 44.09765625 135.13671875 C44.07574466 130.88267415 44.04129382 126.62889881 44 122.375 C43.60965576 122.97610596 43.21931152 123.57721191 42.81713867 124.1965332 C35.40424939 135.48753044 26.51226755 144.00078496 13 147.375 C8.93471393 147.68771431 4.88822623 147.69952279 0.8125 147.6875 C-0.26064453 147.70361328 -1.33378906 147.71972656 -2.43945312 147.73632812 C-18.145673 147.74582977 -29.32354179 142.37072415 -40.6796875 131.7265625 C-57.51199196 114.66756033 -60.4807079 94.39429135 -60.3527832 71.37768555 C-60.00459193 51.29195154 -54.90205231 31.36565467 -40.5 16.4375 C-28.69511394 5.62304655 -16.16107463 -0.20371102 0 0 Z M-27.01171875 30.4453125 C-39.47273774 45.52828125 -42.45665915 65.41353092 -41 84.375 C-39.63446055 97.8580449 -34.5400584 112.57326335 -24.13671875 121.83203125 C-13.91364963 129.21432065 -3.45088673 131.28908067 9 130.375 C12.49149289 129.69259309 15.69898657 128.69048766 19 127.375 C20.5159375 126.7871875 20.5159375 126.7871875 22.0625 126.1875 C32.54457243 119.71983829 39.06212372 111.02378664 42.359375 99.1875 C42.57078125 98.259375 42.7821875 97.33125 43 96.375 C43.16773926 95.66617676 43.33547852 94.95735352 43.50830078 94.22705078 C44.91628929 87.86404997 45.3860368 81.75895443 45.375 75.25 C45.37338867 74.24880127 45.37177734 73.24760254 45.37011719 72.21606445 C45.22618679 63.4073833 43.78227118 55.7314742 41 47.375 C40.71125 46.43527344 40.4225 45.49554688 40.125 44.52734375 C37.78694882 37.77413341 33.72802618 32.66611759 29 27.375 C28.30390625 26.57255859 28.30390625 26.57255859 27.59375 25.75390625 C25.43976835 23.89028978 23.16278368 22.90019332 20.5625 21.75 C19.61503906 21.32460938 18.66757812 20.89921875 17.69140625 20.4609375 C2.11041199 14.17426638 -15.51963889 18.61851187 -27.01171875 30.4453125 Z " fill="#FFFFFF" transform="translate(622,432.625)"/>
<path d="M0 0 C6.52680293 -0.3821895 13.05070942 -0.64367577 19.58618164 -0.82397461 C21.80537654 -0.89914949 24.02383451 -1.0013359 26.24047852 -1.1315918 C44.16074657 -2.15779174 44.16074657 -2.15779174 48.86578369 1.41796875 C51.87905546 4.90655006 53.67442708 8.79762089 55.26065063 13.09313965 C56.39141488 16.00950044 57.95022614 18.66445591 59.5 21.375 C59.9640625 22.24898437 60.428125 23.12296875 60.90625 24.0234375 C61.84789503 25.94000691 61.84789503 25.94000691 63 27 C63.34256836 26.39526855 63.68513672 25.79053711 64.03808594 25.16748047 C65.6064092 22.40200025 67.17817344 19.63849042 68.75 16.875 C69.28882813 15.92367187 69.82765625 14.97234375 70.3828125 13.9921875 C70.91132812 13.0640625 71.43984375 12.1359375 71.984375 11.1796875 C72.46616211 10.33132324 72.94794922 9.48295898 73.44433594 8.60888672 C74.21438965 7.31748779 74.21438965 7.31748779 75 6 C75.50208984 4.91525391 76.00417969 3.83050781 76.52148438 2.71289062 C79.3290059 -0.36011757 79.81799499 -0.43017659 83.76855469 -0.68115234 C85.73658383 -0.68020421 87.70477478 -0.64640527 89.671875 -0.5859375 C90.70942932 -0.57744781 91.74698364 -0.56895813 92.815979 -0.56021118 C96.12837771 -0.52663641 99.43833778 -0.45134541 102.75 -0.375 C104.99605858 -0.34490586 107.24215534 -0.3175291 109.48828125 -0.29296875 C114.99301888 -0.22683222 120.49633525 -0.12644303 126 0 C122.6148138 5.74567128 119.16087089 11.36567837 115.3125 16.8125 C113.20766381 19.79707774 111.16347181 22.71305067 109.35546875 25.88671875 C108.90816406 26.58410156 108.46085938 27.28148437 108 28 C107.34 28 106.68 28 106 28 C105.773125 28.66 105.54625 29.32 105.3125 30 C103.6121185 33.88658628 101.60376916 37.63679817 99 41 C98.34 41 97.68 41 97 41 C97 41.99 97 42.98 97 44 C96.34 44 95.68 44 95 44 C94.74605469 44.72058594 94.49210938 45.44117188 94.23046875 46.18359375 C92.51482155 50.11051956 89.9641974 53.21490158 87.36328125 56.59765625 C85.83222043 58.81893215 85.83222043 58.81893215 86.0390625 60.92578125 C87.41154617 63.88833747 89.19749835 66.44755494 91.0625 69.125 C95 74.78558875 95 74.78558875 95 77 C95.66 77 96.32 77 97 77 C97.515625 77.94875 98.03125 78.8975 98.5625 79.875 C100.8239082 83.83444804 103.41745774 87.51182752 106.05078125 91.23046875 C108.21105487 94.29987555 110.33405192 97.39136434 112.4375 100.5 C113.11683594 101.5003125 113.79617188 102.500625 114.49609375 103.53125 C116 106 116 106 116 108 C116.66 108 117.32 108 118 108 C119.65625 110.23046875 119.65625 110.23046875 121.5 113.1875 C122.1084375 114.15042969 122.716875 115.11335938 123.34375 116.10546875 C125 119 125 119 127 124 C111.49 124 95.98 124 80 124 C78.35 121.03 76.7 118.06 75 115 C73.97326068 113.24221388 72.93746315 111.48963666 71.88671875 109.74609375 C71.36142578 108.87275391 70.83613281 107.99941406 70.29492188 107.09960938 C69.76447266 106.22111328 69.23402344 105.34261719 68.6875 104.4375 C68.13771484 103.52419922 67.58792969 102.61089844 67.02148438 101.66992188 C65.68234803 99.44579108 64.34183455 97.22250361 63 95 C60.81008206 97.86339116 59.03865977 100.67415752 57.375 103.875 C56.85736084 104.78749512 56.33972168 105.69999023 55.80639648 106.64013672 C53.9295608 109.98559286 53.9295608 109.98559286 52.5300293 113.62988281 C50.6867376 117.7450706 48.72910675 121.33267164 45 124 C37.48025241 126.34319422 29.18411339 125.30943331 21.4375 124.875 C19.26256977 124.80471035 17.08742191 124.74084312 14.91210938 124.68359375 C9.60329638 124.52993369 4.30266126 124.29633352 -1 124 C-1 123.01 -1 122.02 -1 121 C-0.34 121 0.32 121 1 121 C1.3403125 120.01 1.3403125 120.01 1.6875 119 C3.3878815 115.11341372 5.39623084 111.36320183 8 108 C8.66 108 9.32 108 10 108 C10 107.01 10 106.02 10 105 C10.66 105 11.32 105 12 105 C12.268125 104.28457031 12.53625 103.56914062 12.8125 102.83203125 C14.01731307 99.95871061 15.41237112 97.36662374 17 94.6875 C17.7734375 93.36298828 17.7734375 93.36298828 18.5625 92.01171875 C19.036875 91.34785156 19.51125 90.68398437 20 90 C20.66 90 21.32 90 22 90 C22.25523437 89.29101562 22.51046875 88.58203125 22.7734375 87.8515625 C24.1075141 84.75004683 25.73350814 82.17079076 27.625 79.375 C28.32753906 78.33085937 29.03007813 77.28671875 29.75390625 76.2109375 C32.58394396 72.16521403 35.57520413 68.25418303 38.62890625 64.375 C40.19430821 62.16061499 40.19430821 62.16061499 39.89453125 59.953125 C38.84668693 57.66525531 37.61157795 55.78426456 36.125 53.75 C35.196875 52.45449219 35.196875 52.45449219 34.25 51.1328125 C33.5075 50.09898437 32.765 49.06515625 32 48 C30.02793677 45.21778439 28.07381872 42.4235316 26.125 39.625 C25.63660645 38.9350293 25.14821289 38.24505859 24.64501953 37.53417969 C24.18724121 36.87579102 23.72946289 36.21740234 23.2578125 35.5390625 C22.64123779 34.66048584 22.64123779 34.66048584 22.01220703 33.76416016 C20.91987292 31.86034774 20.43237867 30.1430687 20 28 C19.34 28 18.68 28 18 28 C16.51953125 25.9453125 16.51953125 25.9453125 14.8125 23.125 C11.92621754 18.44681718 8.89413356 13.93937342 5.67578125 9.484375 C3.60328489 6.41186291 1.82725587 3.22470764 0 0 Z " fill="#EA0027" transform="translate(678,120)"/>
<path d="M0 0 C2.97922593 -0.02683987 5.95821295 -0.04676037 8.9375 -0.0625 C9.78763672 -0.07087891 10.63777344 -0.07925781 11.51367188 -0.08789062 C12.32255859 -0.09111328 13.13144531 -0.09433594 13.96484375 -0.09765625 C14.7137085 -0.10289307 15.46257324 -0.10812988 16.23413086 -0.11352539 C18 0 18 0 19 1 C19.10193727 2.73405585 19.13353567 4.4722764 19.13803101 6.20932007 C19.14348434 7.33912292 19.14893768 8.46892578 19.15455627 9.63296509 C19.1555986 10.88378876 19.15664093 12.13461243 19.15771484 13.42333984 C19.16551458 15.43281043 19.17331834 17.44228101 19.18127275 19.45175099 C19.18900259 21.61988524 19.19437651 23.7880152 19.19923019 25.95615768 C19.20990272 30.47916302 19.23014961 35.00209331 19.25234985 39.52505493 C19.31428607 52.3898776 19.36816223 65.25469772 19.40136719 78.11962891 C19.41977141 85.21889602 19.44878746 92.31803913 19.4893719 99.41721499 C19.51036056 103.17180439 19.52588737 106.926238 19.52817917 110.68088913 C19.53034275 114.22190427 19.54638399 117.76259616 19.57256889 121.30351257 C19.58307382 123.20622924 19.57903472 125.10900928 19.5743866 127.01174927 C19.70795296 140.95479253 23.60774323 153.95552111 33.26171875 164.3828125 C44.80540054 175.12232769 58.36307982 179.17596197 73.8125 179.1875 C74.66392578 179.19974609 75.51535156 179.21199219 76.39257812 179.22460938 C91.44303896 179.25899733 104.95943429 173.91672235 115.7109375 163.3125 C126.0035846 152.02716105 128.45289117 139.17494098 128.41650391 124.29858398 C128.42390157 122.96031441 128.43261196 121.62205156 128.44252014 120.28379822 C128.46563922 116.68522058 128.47098043 113.08681594 128.47317934 109.48817325 C128.47887718 105.71211495 128.50217094 101.93616638 128.52377319 98.16017151 C128.56214853 91.02307642 128.58646427 83.88601316 128.60489786 76.74884135 C128.63843728 63.94225299 128.69601122 51.13575941 128.75888956 38.3292852 C128.78038683 33.83645655 128.79565193 29.34366114 128.80572915 24.85079277 C128.81104859 22.73513854 128.81851502 20.61950463 128.82688904 18.50386047 C128.83691048 15.92171411 128.84328577 13.33955017 128.84544373 10.75738525 C128.85089706 9.62620773 128.8563504 8.49503021 128.86196899 7.32957458 C128.86452509 6.34279441 128.86708118 5.35601423 128.86971474 4.33933163 C129 2 129 2 130 0 C132.97922593 -0.02683987 135.95821295 -0.04676037 138.9375 -0.0625 C139.78763672 -0.07087891 140.63777344 -0.07925781 141.51367188 -0.08789062 C142.32255859 -0.09111328 143.13144531 -0.09433594 143.96484375 -0.09765625 C144.7137085 -0.10289307 145.46257324 -0.10812988 146.23413086 -0.11352539 C148 0 148 0 149 1 C149.10725253 2.7584249 149.14410353 4.52117143 149.15390015 6.28283691 C149.16250061 7.42921127 149.17110107 8.57558563 149.17996216 9.75669861 C149.18635208 11.66087303 149.18635208 11.66087303 149.19287109 13.60351562 C149.20076997 14.94552321 149.20903879 16.28752866 149.21765137 17.62953186 C149.24393835 22.05508378 149.2592047 26.48064536 149.2734375 30.90625 C149.27879806 32.43290716 149.28417557 33.95956427 149.28956985 35.48622131 C149.31122536 41.8479302 149.32995228 48.20963652 149.34119225 54.57137299 C149.35735905 63.66104412 149.39032695 72.75028271 149.44759309 81.83979082 C149.48653231 88.241722 149.50585413 94.6435388 149.51111281 101.04558516 C149.51473923 104.86089379 149.52646309 108.67574189 149.55921555 112.49092102 C149.75758195 136.7774001 148.19365648 158.52629268 130.5625 177 C114.16601248 192.11994437 96.04758191 198.17381549 74.125 198.1875 C73.10019531 198.19974609 72.07539062 198.21199219 71.01953125 198.22460938 C64.43318021 198.23716278 58.39417435 197.57157486 52 196 C51.071875 195.77699219 50.14375 195.55398438 49.1875 195.32421875 C39.66637087 192.55289009 31.68236497 188.23781771 24 182 C23.39671875 181.53078125 22.7934375 181.0615625 22.171875 180.578125 C20.73737227 179.43856676 19.36174877 178.22557389 18 177 C18 176.34 18 175.68 18 175 C17.01 174.67 16.02 174.34 15 174 C3.32939237 160.31054318 -0.48876036 145.25223019 -0.34057617 127.60253906 C-0.3397277 126.20177224 -0.34020932 124.80100409 -0.34190369 123.40023804 C-0.34275651 119.63648576 -0.32524797 115.87302644 -0.30418181 112.10934162 C-0.28529457 108.16159403 -0.28365516 104.21383805 -0.28010559 100.26605225 C-0.27082023 92.80778513 -0.24625453 85.34965159 -0.21605712 77.89144301 C-0.18240316 69.39315912 -0.16599959 60.8948685 -0.15097082 52.39653444 C-0.11970139 34.93094599 -0.06700999 17.46548717 0 0 Z " fill="#FFFFFF" transform="translate(1087,387)"/>
<path d="M0 0 C0.96413818 0.01087646 1.92827637 0.02175293 2.92163086 0.03295898 C20.41251701 0.42229832 33.53456098 6.40443056 46.23828125 18.23828125 C48.1875 20.375 48.1875 20.375 48.1875 22.375 C48.8475 22.375 49.5075 22.375 50.1875 22.375 C63.56671226 38.64701491 66.24511354 61.02181497 65.1875 81.375 C62.86737269 82.53506366 61.50673037 82.51183852 58.92282104 82.53321838 C57.58084656 82.54790161 57.58084656 82.54790161 56.21176147 82.56288147 C55.22777374 82.56863693 54.24378601 82.5743924 53.22998047 82.58032227 C52.19580994 82.59022186 51.1616394 82.60012146 50.09613037 82.61032104 C46.66567299 82.64199838 43.23520173 82.66671811 39.8046875 82.69140625 C37.43099602 82.71197039 35.05730825 82.73296672 32.68362427 82.75437927 C26.42664588 82.80965567 20.16963413 82.85904037 13.91259766 82.90722656 C7.53154522 82.95740098 1.15054139 83.0131082 -5.23046875 83.06835938 C-17.75777072 83.17600904 -30.28511416 83.27762662 -42.8125 83.375 C-42.3516334 86.08666743 -41.88613035 88.79740324 -41.41796875 91.5078125 C-41.28902222 92.26940674 -41.16007568 93.03100098 -41.02722168 93.81567383 C-39.07389202 105.06321859 -35.29287603 113.59932076 -27.8125 122.375 C-26.8225 122.87 -26.8225 122.87 -25.8125 123.375 C-25.8125 124.035 -25.8125 124.695 -25.8125 125.375 C-24.9771875 125.7771875 -24.9771875 125.7771875 -24.125 126.1875 C-21.8125 127.375 -21.8125 127.375 -19.6875 128.8125 C-12.24162847 132.85916931 -4.67838874 133.86121566 3.6875 133.75 C4.56019531 133.76160156 5.43289063 133.77320313 6.33203125 133.78515625 C17.14438029 133.73710137 26.87411326 130.60596655 34.68359375 122.8984375 C37.78171764 119.28878537 40.46085396 115.27020863 43.1875 111.375 C45.83442977 112.01658952 48.47999929 112.66304783 51.125 113.3125 C51.87974609 113.49490234 52.63449219 113.67730469 53.41210938 113.86523438 C59.07421875 115.26171875 59.07421875 115.26171875 60.1875 116.375 C60.95234494 122.85905862 56.80288702 127.35151487 53.1875 132.375 C43.1233459 144.02823107 29.2111042 151.2674337 13.89575195 152.67822266 C10.5077815 152.81088939 7.14037602 152.84280557 3.75 152.8125 C2.56148437 152.80492676 1.37296875 152.79735352 0.1484375 152.78955078 C-13.91313458 152.52463943 -26.87018958 148.69997123 -37.8125 139.375 C-37.8125 138.715 -37.8125 138.055 -37.8125 137.375 C-38.4725 137.375 -39.1325 137.375 -39.8125 137.375 C-41.4375 136 -41.4375 136 -42.8125 134.375 C-42.8125 133.715 -42.8125 133.055 -42.8125 132.375 C-43.8025 132.045 -44.7925 131.715 -45.8125 131.375 C-61.94725942 113.44314874 -64.05973978 88.48502273 -63.04882812 65.61474609 C-61.70813794 47.23565653 -53.41169181 28.03353625 -39.8125 15.375 C-27.74224958 5.53393997 -15.75408278 -0.24288296 0 0 Z M-31.0390625 32.91796875 C-38.68959021 42.84646257 -41.57012244 52.0419234 -43.8125 64.375 C-14.7725 64.375 14.2675 64.375 44.1875 64.375 C46.38206415 57.79130754 42.46616261 48.4026379 39.828125 42.15625 C34.28284629 31.5427058 27.16148672 23.76727038 15.8125 19.5625 C-1.93252034 14.79026887 -18.86191992 19.01039012 -31.0390625 32.91796875 Z " fill="#FFFFFF" transform="translate(1669.8125,432.625)"/>
<path d="M0 0 C2.87109375 2.09375 2.87109375 2.09375 5 4 C5 4.66 5 5.32 5 6 C5.56847656 6.20882813 6.13695312 6.41765625 6.72265625 6.6328125 C15.98813824 12.19528025 21.46351135 27.0733593 24.1875 36.9375 C24.47970656 38.28721604 24.74801194 39.64220028 25 41 C25.18433594 41.95261719 25.36867188 42.90523438 25.55859375 43.88671875 C29.19923555 64.70114668 29.19923555 64.70114668 25 71 C23.08284569 71.36914349 23.08284569 71.36914349 20.69735718 71.36076355 C19.79429337 71.36488754 18.89122955 71.36901154 17.96080017 71.3732605 C16.47079247 71.35708176 16.47079247 71.35708176 14.95068359 71.34057617 C13.90675949 71.34101425 12.86283539 71.34145233 11.78727722 71.34190369 C8.32414278 71.33980756 4.86148775 71.31643734 1.3984375 71.29296875 C-0.9976678 71.28737574 -3.39377652 71.28310425 -5.78988647 71.28010559 C-12.10617492 71.26863368 -18.42225745 71.2391462 -24.73846436 71.20599365 C-31.17978123 71.17534335 -37.62113127 71.16161104 -44.0625 71.14648438 C-56.70842135 71.11427885 -69.35419974 71.06362821 -82 71 C-81.41689246 74.1747249 -80.81365902 77.34531742 -80.20703125 80.515625 C-80.04400513 81.40459473 -79.880979 82.29356445 -79.7130127 83.20947266 C-76.9121028 97.68250171 -69.90229798 109.30864048 -57.69921875 117.67578125 C-50.12026258 121.39396669 -42.80697497 122.48569107 -34.4375 122.375 C-33.55642578 122.38660156 -32.67535156 122.39820313 -31.76757812 122.41015625 C-21.92277792 122.36656304 -11.53275709 119.24997173 -4.2421875 112.33203125 C-1.82949285 109.58592402 0.22389402 106.70328457 2.1875 103.625 C4 101 4 101 7 100 C9.625057 100.73157326 12.12859819 101.52241186 14.6875 102.4375 C15.38939453 102.68048828 16.09128906 102.92347656 16.81445312 103.17382812 C18.54578532 103.7744944 20.27328137 104.38619719 22 105 C20.97963721 113.45443456 15.66486064 119.86306764 10 126 C9.34 126 8.68 126 8 126 C8 126.66 8 127.32 8 128 C-8.61666385 141.22007124 -27.67589811 142.20499926 -48 141 C-52.64003228 140.39516324 -56.7671968 138.98972647 -61 137 C-62.43279297 136.34644531 -62.43279297 136.34644531 -63.89453125 135.6796875 C-70.34903954 132.44801851 -76.11718689 128.35300993 -81 123 C-81 122.34 -81 121.68 -81 121 C-81.57878906 120.78085937 -82.15757812 120.56171875 -82.75390625 120.3359375 C-91.62650778 115.05866842 -95.98651613 101.30837488 -98.96875 91.96484375 C-105.07339298 67.80063197 -102.55640723 40.44926955 -90 19 C-80.94807924 4.64239895 -68.1546876 -6.78927456 -51.25927734 -10.62060547 C-32.69494907 -13.73806453 -15.86865696 -9.95338043 0 0 Z M-71.95703125 24.12109375 C-77.73108996 32.25776921 -82 42.93936463 -82 53 C-52.96 53 -23.92 53 6 53 C4.75736217 39.33098385 1.46136297 25.70053657 -9 16 C-29.25379943 -0.51463645 -55.75887992 5.34270592 -71.95703125 24.12109375 Z " fill="#FFFFFF" transform="translate(517,444)"/>
<path d="M0 0 C1.08990234 0.00499512 2.17980469 0.00999023 3.30273438 0.01513672 C16.26971772 0.29311019 27.50600802 3.28146114 37.8125 11.5 C38.84375 12.20125 39.875 12.9025 40.9375 13.625 C49.26292061 20.88365362 53.04898385 32.63426911 54.08577728 43.31529808 C54.18339514 46.13469249 54.19587772 48.93957163 54.16894531 51.76049805 C54.17098969 52.81402969 54.17303406 53.86756134 54.17514038 54.95301819 C54.17811683 58.38943597 54.15977612 61.82535911 54.140625 65.26171875 C54.13756366 67.66355775 54.13569039 70.06539854 54.13494873 72.46723938 C54.13036654 77.47586973 54.11601254 82.48433742 54.09375 87.49291992 C54.06530074 93.92705672 54.05451942 100.36106669 54.0500679 106.79526043 C54.04592437 111.74242936 54.0361186 116.68957248 54.02419281 121.63672829 C54.0184824 124.01111456 54.01372625 126.38550332 54.00992584 128.75989342 C54.00309283 132.06092138 53.98947911 135.36184638 53.97363281 138.6628418 C53.97251495 139.65027374 53.97139709 140.63770569 53.97024536 141.65505981 C53.96453522 142.5478212 53.95882507 143.44058258 53.95294189 144.36039734 C53.94996723 145.14031886 53.94699257 145.92024038 53.94392776 146.72379589 C53.8125 148.5 53.8125 148.5 52.8125 149.5 C51.46982587 149.58631874 50.12275678 149.60706473 48.77734375 149.59765625 C48.04894287 149.59515869 47.32054199 149.59266113 46.57006836 149.59008789 C45.6394458 149.58098389 44.70882324 149.57187988 43.75 149.5625 C39.3259375 149.5315625 39.3259375 149.5315625 34.8125 149.5 C34.3175 139.105 34.3175 139.105 33.8125 128.5 C31.8325 131.14 29.8525 133.78 27.8125 136.5 C19.5179788 145.40143739 8.86960838 152.33327945 -3.56640625 152.8359375 C-5.62742763 152.86589179 -7.68876342 152.8781851 -9.75 152.875 C-10.8217749 152.87338867 -11.8935498 152.87177734 -12.99780273 152.87011719 C-23.92336429 152.70117801 -32.93646993 150.52392656 -42.1875 144.5 C-42.1875 143.84 -42.1875 143.18 -42.1875 142.5 C-43.05375 142.12875 -43.05375 142.12875 -43.9375 141.75 C-46.51689979 140.31700012 -48.24871592 138.71575324 -50.1875 136.5 C-50.1875 135.84 -50.1875 135.18 -50.1875 134.5 C-50.8475 134.5 -51.5075 134.5 -52.1875 134.5 C-52.98868392 133.15144233 -53.77791608 131.79578257 -54.5625 130.4375 C-55.00335937 129.68339844 -55.44421875 128.92929687 -55.8984375 128.15234375 C-60.87148711 117.91991742 -60.83247621 104.60342148 -57.5625 93.8125 C-55.59339698 88.75612475 -53.1022629 85.24455581 -49.1875 81.5 C-48.5275 81.5 -47.8675 81.5 -47.1875 81.5 C-47.1875 80.84 -47.1875 80.18 -47.1875 79.5 C-33.43339422 67.93139832 -12.74710102 64.99295212 4.6015625 63.8046875 C8.64478794 63.42102377 12.62217695 62.80486304 16.625 62.125 C17.33068115 62.01091797 18.0363623 61.89683594 18.76342773 61.77929688 C27.03629566 60.36477979 27.03629566 60.36477979 33.3125 55.375 C34.03052386 51.24636283 33.50926926 47.60691883 32.8125 43.5 C32.64234375 42.36111328 32.64234375 42.36111328 32.46875 41.19921875 C31.21409627 34.21417536 28.53760619 28.79156657 23.0625 24.1875 C15.92798543 20.48304051 9.39242953 18.98377046 1.375 19.125 C0.54315186 19.13442627 -0.28869629 19.14385254 -1.14575195 19.15356445 C-10.09979377 19.37349444 -16.96719677 21.24102694 -24.3984375 26.31640625 C-26.1875 27.5 -26.1875 27.5 -28.35546875 28.546875 C-30.79064638 29.81379044 -31.04397281 31.0111467 -32.1875 33.5 C-33.79667381 35.87544706 -35.48694627 38.18932394 -37.1875 40.5 C-39.08442143 40.04619105 -40.97999595 39.58675008 -42.875 39.125 C-44.45861328 38.74214844 -44.45861328 38.74214844 -46.07421875 38.3515625 C-48.89156766 37.58094511 -51.50418325 36.64501457 -54.1875 35.5 C-53.81222496 26.68103653 -48.85700463 20.85138998 -42.6875 14.875 C-30.53284392 4.42016801 -15.84919271 -0.09604079 0 0 Z M30.95703125 74.8671875 C25.9947175 77.02449478 20.81047191 77.7532876 15.5 78.625 C13.52429498 78.95831276 11.54900942 79.29412457 9.57421875 79.6328125 C8.70756592 79.77605957 7.84091309 79.91930664 6.94799805 80.06689453 C4.77208045 80.41166439 4.77208045 80.41166439 2.8125 81.5 C0.97700491 81.69276889 -0.85906867 81.88141624 -2.69750977 82.04370117 C-14.27728583 83.11017646 -26.13426943 85.13426943 -34.69921875 93.69921875 C-39.2617802 99.21979835 -39.67104349 104.65735491 -39.47265625 111.56640625 C-38.8303879 118.17385188 -36.39617889 124.15124451 -31.1875 128.5 C-19.67350422 135.41587409 -6.87132426 136.32257917 6.2578125 133.8515625 C18.41700176 129.79849941 25.71832828 121.1236301 31.625 110.125 C35.54879902 98.14708721 35.03998343 85.9520929 34.8125 73.5 C33.43517488 73.42802527 33.43517488 73.42802527 30.95703125 74.8671875 Z " fill="#FFFFFF" transform="translate(859.1875,432.5)"/>
<path d="M0 0 C0.72896484 -0.00386719 1.45792969 -0.00773437 2.20898438 -0.01171875 C5.42107736 -0.0058304 7.9946444 0.10238147 11.0625 1.125 C12.13768599 3.35591096 13.01136536 5.4786183 13.83984375 7.80078125 C14.09246475 8.48117966 14.34508575 9.16157806 14.60536194 9.8625946 C15.41440545 12.0504154 16.20711991 14.2437768 17 16.4375 C17.52958589 17.87342091 18.06017434 19.30897249 18.59179688 20.74414062 C21.26369443 27.9912408 23.79136491 35.26985004 26.19799805 42.60986328 C26.92651421 44.72937005 27.71540589 46.76661084 28.6171875 48.81640625 C30.3706481 52.8304093 31.77332636 56.91944567 33.1875 61.0625 C35.89364469 68.90442064 38.74887936 76.67988406 41.6875 84.4375 C54.0625 117.20064962 54.0625 117.20064962 54.0625 126.125 C54.7225 126.125 55.3825 126.125 56.0625 126.125 C56.43761719 124.28228516 56.43761719 124.28228516 56.8203125 122.40234375 C58.160614 116.38040915 60.03987588 110.55320429 61.9375 104.6875 C62.27652344 103.61951172 62.61554687 102.55152344 62.96484375 101.45117188 C64.81929814 95.67979955 66.83432567 90.03204501 69.13378906 84.42358398 C70.53839061 80.94715822 71.77160667 77.41671181 73 73.875 C73.51681764 72.40100329 74.03374645 70.92704555 74.55078125 69.453125 C75.28684225 67.34741966 76.02197663 65.24140117 76.75537109 63.13476562 C77.39612434 61.29702677 78.04172743 59.4609811 78.6875 57.625 C79.05101563 56.5834375 79.41453125 55.541875 79.7890625 54.46875 C80.76061322 51.91768431 81.79646203 49.48724693 82.93359375 47.01171875 C85.51051334 41.28830808 87.48544693 35.37712937 89.5 29.4375 C90.29422902 27.13149601 91.08849952 24.82550632 91.8828125 22.51953125 C93.15118234 18.81586962 94.40223862 15.1082209 95.6171875 11.38671875 C96.03226563 10.14535156 96.44734375 8.90398437 96.875 7.625 C97.21144531 6.5834375 97.54789063 5.541875 97.89453125 4.46875 C99.0625 2.125 99.0625 2.125 100.7265625 0.80078125 C104.06307402 -0.16446372 107.15672922 -0.17732912 110.625 -0.1875 C111.63336914 -0.21166992 111.63336914 -0.21166992 112.66210938 -0.23632812 C117.58895495 -0.24122072 117.58895495 -0.24122072 120.02734375 1.64453125 C120.36894531 2.13308594 120.71054688 2.62164062 121.0625 3.125 C115.25451896 19.98750494 115.25451896 19.98750494 111.9921875 26.95703125 C110.84480964 29.63263928 109.95901082 32.35554603 109.0625 35.125 C107.92998394 38.6235089 106.74616136 41.98263255 105.1875 45.3125 C103.31413804 49.35085925 101.84697733 53.49910057 100.3984375 57.703125 C96.99864673 67.44757052 93.29427639 77.06636698 89.5625 86.6875 C88.28009784 90.00085726 86.99912658 93.31476577 85.71875 96.62890625 C85.40599121 97.43784332 85.09323242 98.2467804 84.77099609 99.08023071 C82.82797678 104.11423764 80.91648287 109.15893823 79.03125 114.21484375 C75.51005469 123.65422733 71.83467822 133.03281887 68.16699219 142.41601562 C67.27712989 144.6936741 66.3882566 146.97171486 65.5 149.25 C65.21178879 149.98870331 64.92357758 150.72740662 64.62663269 151.48849487 C62.38636496 157.24859564 60.20902359 163.03103256 58.08679199 168.83569336 C53.31936619 181.73338166 45.94218395 192.81442526 34.0625 200.125 C23.04266109 205.10051255 11.27478169 205.2705371 0.0625 201.125 C-0.2675 200.795 -0.5975 200.465 -0.9375 200.125 C-0.46651824 194.47321884 1.14532481 189.44244817 3.0625 184.125 C4.51269531 184.30289063 4.51269531 184.30289063 5.9921875 184.484375 C15.18610747 185.39466411 22.43536534 185.51416504 30.015625 179.6015625 C35.92432079 173.71855669 38.28484965 165.78661562 41.0625 158.125 C41.7071361 156.60365881 42.35267123 155.08269742 43 153.5625 C44.79112733 147.7676763 42.82561044 143.07353083 40.76953125 137.5390625 C40.42955109 136.61716881 40.42955109 136.61716881 40.08270264 135.676651 C39.35197523 133.69913828 38.61371345 131.72454175 37.875 129.75 C37.3699511 128.38923096 36.86531367 127.02830914 36.36108398 125.66723633 C35.37464249 123.00731275 34.38510565 120.34857644 33.39257812 117.69091797 C32.30175377 114.76643549 31.21803736 111.83959506 30.140625 108.91015625 C27.94242413 102.95395937 25.6545837 97.0929829 22.9921875 91.328125 C21.43595219 87.64023964 20.28669072 83.81755816 19.0546875 80.01171875 C18.21345658 77.56420044 17.28291766 75.27771046 16.1875 72.9375 C14.1730694 68.59933646 12.62318109 64.14048644 11.0625 59.625 C8.79116567 53.03510081 8.79116567 53.03510081 6.0625 46.625 C3.88441406 41.94747119 2.24963949 37.08932468 0.56787109 32.21826172 C-1.91352024 25.07589959 -4.62863266 18.02862961 -7.39746094 10.99316406 C-7.89294434 9.71650879 -7.89294434 9.71650879 -8.3984375 8.4140625 C-8.84388916 7.28025146 -8.84388916 7.28025146 -9.29833984 6.12353516 C-9.9375 4.125 -9.9375 4.125 -9.9375 1.125 C-6.79444562 -0.44652719 -3.446226 -0.01818589 0 0 Z " fill="#FFFFFF" transform="translate(2099.9375,433.875)"/>
<path d="M0 0 C1.30594043 0.98128608 2.59997612 1.9788649 3.875 3 C4.761875 3.61875 5.64875 4.2375 6.5625 4.875 C15.73741615 13.30600403 21.21786888 25.08267086 22.03957748 37.48377991 C22.30023646 44.84652781 22.21903936 52.21232669 22.16796875 59.578125 C22.1623655 61.95993786 22.15809885 64.34175421 22.15510559 66.72357178 C22.14371427 72.95751688 22.11429665 79.19124845 22.08099365 85.42510986 C22.05016907 91.80030429 22.03657388 98.1755336 22.02148438 104.55078125 C21.98942115 117.03394738 21.93829455 129.51695586 21.875 142 C15.605 142 9.335 142 2.875 142 C2.86041748 139.06907471 2.84583496 136.13814941 2.83081055 133.1184082 C2.78029765 123.39535702 2.71367366 113.67246318 2.63928509 103.94956684 C2.5947061 98.05908408 2.55542282 92.1686685 2.52856445 86.27807617 C2.50240669 80.58505091 2.46191709 74.89228592 2.41181374 69.19942284 C2.395229 67.03594406 2.3836628 64.87242034 2.37738609 62.7088871 C2.90758523 42.21717336 2.90758523 42.21717336 -5.125 24 C-5.62 22.88625 -5.62 22.88625 -6.125 21.75 C-7.43974932 19.44918868 -8.73613118 19.11952215 -11.125 18 C-11.90617187 17.58621094 -12.68734375 17.17242187 -13.4921875 16.74609375 C-23.35829005 11.59789382 -34.177067 10.311034 -45.125 13 C-56.25530022 17.51929885 -62.96035232 22.75142567 -68.1796875 33.5703125 C-70.35157419 39.15259978 -70.28679234 44.60848878 -70.31445312 50.51611328 C-70.32274643 51.46787445 -70.33103973 52.41963562 -70.33958435 53.40023804 C-70.35695105 55.46219366 -70.37212702 57.52416865 -70.38536072 59.58615494 C-70.40642309 62.84711044 -70.43344133 66.10796837 -70.46203613 69.36886597 C-70.53179823 77.46465184 -70.59131342 85.56050721 -70.65106201 93.65637207 C-70.70196522 100.50303204 -70.75677247 107.34963866 -70.81687927 114.19622421 C-70.84348307 117.41303684 -70.86427676 120.6298544 -70.8848877 123.84671021 C-70.90148699 125.81203451 -70.9183585 127.77735654 -70.93554688 129.74267578 C-70.93973129 130.6404071 -70.94391571 131.53813843 -70.94822693 132.46307373 C-70.96074242 133.69530167 -70.96074242 133.69530167 -70.97351074 134.9524231 C-70.97866447 135.66584932 -70.98381821 136.37927555 -70.98912811 137.11432076 C-71.125 139 -71.125 139 -72.125 142 C-75.10422593 142.02683987 -78.08321295 142.04676037 -81.0625 142.0625 C-81.91263672 142.07087891 -82.76277344 142.07925781 -83.63867188 142.08789062 C-84.44755859 142.09111328 -85.25644531 142.09433594 -86.08984375 142.09765625 C-86.8387085 142.10289307 -87.58757324 142.10812988 -88.35913086 142.11352539 C-90.125 142 -90.125 142 -91.125 141 C-91.22154727 139.11438482 -91.24687241 137.22510545 -91.24525452 135.33702087 C-91.24662918 134.10717972 -91.24800385 132.87733856 -91.24942017 131.61022949 C-91.24588056 130.23486304 -91.24224574 128.85949683 -91.23852539 127.48413086 C-91.23824352 126.04557802 -91.23840124 124.60702504 -91.2389679 123.16847229 C-91.23925589 119.25128857 -91.23335884 115.33413521 -91.22639394 111.41695857 C-91.22016074 107.32766163 -91.21955663 103.23836407 -91.21836853 99.14906311 C-91.21525511 91.40007602 -91.20704159 83.65110297 -91.19701904 75.90212208 C-91.18585822 67.08243791 -91.18034753 58.26275309 -91.17532361 49.44306362 C-91.16485898 31.29536777 -91.14725934 13.14768501 -91.125 -5 C-88.16912889 -6.47793555 -85.47502355 -6.17053651 -82.1875 -6.1875 C-80.94097656 -6.20167969 -79.69445312 -6.21585937 -78.41015625 -6.23046875 C-75.125 -6 -75.125 -6 -72.125 -4 C-71.69262695 -2.02880859 -71.69262695 -2.02880859 -71.61328125 0.3515625 C-71.56010742 1.62773437 -71.56010742 1.62773437 -71.50585938 2.9296875 C-71.48330078 3.81914062 -71.46074219 4.70859375 -71.4375 5.625 C-71.38625977 6.97078125 -71.38625977 6.97078125 -71.33398438 8.34375 C-71.25137598 10.56237538 -71.18227281 12.7805994 -71.125 15 C-70.38056641 14.00419922 -70.38056641 14.00419922 -69.62109375 12.98828125 C-65.57880029 7.73406679 -61.89611771 3.31966948 -56.125 0 C-55.52171875 -0.35578125 -54.9184375 -0.7115625 -54.296875 -1.078125 C-38.19640872 -9.84829769 -15.64587986 -10.17240374 0 0 Z " fill="#FFFFFF" transform="translate(295.125,440)"/>
<path d="M0 0 C12.57258337 7.49485952 20.60448065 17.49687768 24.64088917 31.52848816 C26.07150015 37.47679008 26.35331192 43.10141821 26.31713867 49.203125 C26.31903702 50.22695786 26.32093536 51.25079071 26.32289124 52.3056488 C26.32657075 55.66087711 26.3159399 59.01588498 26.3046875 62.37109375 C26.30349458 64.70996068 26.30304277 67.04882809 26.30329895 69.38769531 C26.30173928 74.27298001 26.2934851 79.15819089 26.2800293 84.04345703 C26.2629648 90.31961531 26.25921737 96.59569318 26.25997448 102.87187195 C26.25970337 107.69294 26.25423301 112.51399032 26.24697304 117.33505249 C26.24378257 119.65082668 26.24181808 121.96660288 26.24107933 124.28237915 C26.23892403 127.50469438 26.23019968 130.72692215 26.21948242 133.94921875 C26.21993561 134.91331161 26.22038879 135.87740448 26.22085571 136.87071228 C26.21659073 137.74256668 26.21232574 138.61442108 26.20793152 139.51269531 C26.20541775 140.65523773 26.20541775 140.65523773 26.2028532 141.82086182 C26.07421875 143.55859375 26.07421875 143.55859375 25.07421875 144.55859375 C23.73154462 144.64491249 22.38447553 144.66565848 21.0390625 144.65625 C20.23017578 144.65302734 19.42128906 144.64980469 18.58789062 144.64648438 C17.73775391 144.63810547 16.88761719 144.62972656 16.01171875 144.62109375 C15.15771484 144.61658203 14.30371094 144.61207031 13.42382812 144.60742188 C11.30726212 144.59559748 9.1907319 144.57766144 7.07421875 144.55859375 C5.94239337 142.29494298 5.94498494 141.06335473 5.93618774 138.55102539 C5.93073441 137.7128981 5.92528107 136.87477081 5.91966248 136.01124573 C5.91862015 135.08972214 5.91757782 134.16819855 5.91650391 133.21875 C5.91142319 132.24941025 5.90634247 131.2800705 5.90110779 130.28135681 C5.89038716 128.17024649 5.88177365 126.05912468 5.87498856 123.94799805 C5.86321173 120.60133923 5.84375901 117.25481018 5.8218689 113.90820312 C5.76023275 104.39050655 5.70631556 94.87282098 5.67285156 85.35498047 C5.65184188 79.53648884 5.61648051 73.71822999 5.57209396 67.89987183 C5.55797547 65.68645987 5.54922095 63.4730067 5.54603958 61.259552 C5.54110095 58.15065391 5.51786427 55.04236659 5.49072266 51.93359375 C5.49372879 51.02826401 5.49673492 50.12293427 5.49983215 49.19017029 C5.37476034 39.48606244 2.97408484 32.21247408 -2.92578125 24.55859375 C-2.92578125 23.89859375 -2.92578125 23.23859375 -2.92578125 22.55859375 C-3.48523437 22.28144531 -4.0446875 22.00429688 -4.62109375 21.71875 C-6.18681175 20.93058348 -7.74395821 20.12520298 -9.29296875 19.3046875 C-19.29943555 14.08324454 -29.61037639 13.00662225 -40.65625 15.79296875 C-46.44729916 17.7465757 -51.60825825 20.22844641 -55.92578125 24.55859375 C-56.58578125 24.55859375 -57.24578125 24.55859375 -57.92578125 24.55859375 C-57.92578125 25.21859375 -57.92578125 25.87859375 -57.92578125 26.55859375 C-58.58578125 26.55859375 -59.24578125 26.55859375 -59.92578125 26.55859375 C-60.19390625 27.23921875 -60.46203125 27.91984375 -60.73828125 28.62109375 C-61.60258624 30.75911135 -62.50346542 32.88245332 -63.42578125 34.99609375 C-66.27079149 41.75299307 -67.22401521 47.04298858 -67.22875977 54.31176758 C-67.2371991 55.27664093 -67.24563843 56.24151428 -67.2543335 57.23562622 C-67.28004358 60.41229767 -67.29223299 63.58887641 -67.3046875 66.765625 C-67.32086412 68.97426589 -67.33804429 71.18289964 -67.35618591 73.39152527 C-67.40181869 79.1959606 -67.43665962 85.00040542 -67.46838379 90.80493164 C-67.52032283 100.11380909 -67.58522371 109.42258226 -67.65659904 118.73132896 C-67.67950199 121.98923681 -67.69572382 125.24713117 -67.71131897 128.50508118 C-67.72471805 130.48751986 -67.73833218 132.4699571 -67.75219727 134.45239258 C-67.75611732 135.82144493 -67.75611732 135.82144493 -67.76011658 137.21815491 C-67.81213946 143.44495196 -67.81213946 143.44495196 -68.92578125 144.55859375 C-74.86578125 144.55859375 -80.80578125 144.55859375 -86.92578125 144.55859375 C-86.92578125 96.04859375 -86.92578125 47.53859375 -86.92578125 -2.44140625 C-83.95338334 -3.9276052 -81.22958547 -3.57317634 -77.92578125 -3.56640625 C-76.03859375 -3.57027344 -76.03859375 -3.57027344 -74.11328125 -3.57421875 C-70.92578125 -3.44140625 -70.92578125 -3.44140625 -68.92578125 -2.44140625 C-68.59578125 4.15859375 -68.26578125 10.75859375 -67.92578125 17.55859375 C-65.39769181 15.03050431 -63.40657105 12.93533134 -61.30078125 10.18359375 C-54.97594273 2.78083788 -45.96064693 -0.50996065 -36.92578125 -3.44140625 C-26.00253452 -7.08248849 -10.10119973 -4.9764255 0 0 Z " fill="#FFFFFF" transform="translate(1359.92578125,437.44140625)"/>
<path d="M0 0 C0.63550781 0.42796875 1.27101563 0.8559375 1.92578125 1.296875 C8.6577109 6.37194392 13.522653 15.01743746 16 23 C15.625 25.3125 15.625 25.3125 15 27 C13.08487728 27.50588147 11.16783078 28.00448391 9.25 28.5 C8.18265625 28.7784375 7.1153125 29.056875 6.015625 29.34375 C3 30 3 30 -1 30 C-2.81640625 27.4453125 -2.81640625 27.4453125 -4.5625 24.125 C-6.99914221 19.37715183 -6.99914221 19.37715183 -11 16 C-11 15.34 -11 14.68 -11 14 C-12.65538958 13.30580437 -14.32636023 12.64896236 -16 12 C-16.95724976 11.62427856 -16.95724976 11.62427856 -17.93383789 11.2409668 C-23.57519515 9.17677616 -28.51648958 8.53715074 -34.5 8.625 C-35.29019531 8.61339844 -36.08039063 8.60179687 -36.89453125 8.58984375 C-46.7698987 8.63833164 -54.36444971 11.89121679 -61.75 18.4375 C-65.89105282 23.15369904 -66.45356731 27.29792235 -66.31640625 33.43359375 C-65.67004895 38.67626964 -63.45650256 42.50188308 -59.8125 46.25 C-50.29061562 52.17472806 -39.55669608 54.38841969 -28.79296875 57.03515625 C-11.62024799 61.25877681 4.44047722 65.57505328 14.875 81 C19.48862361 89.01558849 20.33779768 98.43643013 18.5 107.453125 C17.80178817 109.72231346 16.97394406 111.83524174 16 114 C15.67128906 114.73863281 15.34257813 115.47726562 15.00390625 116.23828125 C8.92699584 128.41312945 -1.37976189 135.07650666 -13.69140625 140.09765625 C-28.85359115 144.84273595 -50.60933827 143.89346118 -65.24609375 137.60546875 C-69.79871517 135.21730745 -74.28500038 132.58689618 -78 129 C-78 128.34 -78 127.68 -78 127 C-78.86625 126.6596875 -78.86625 126.6596875 -79.75 126.3125 C-84.51207254 123.53462435 -86.70415137 118.95044853 -88.75 114 C-89.17796875 112.989375 -89.6059375 111.97875 -90.046875 110.9375 C-90.97372899 108.08096639 -91.19687827 105.97504934 -91 103 C-84.95942424 100.72942897 -79.43681228 99.51085812 -73 99 C-72.59910156 99.92941406 -72.19820312 100.85882812 -71.78515625 101.81640625 C-67.9123439 110.39779799 -64.10282152 117.26336265 -54.85253906 120.82739258 C-48.60848147 122.91304543 -42.92580344 123.43221498 -36.375 123.3125 C-35.48554687 123.31572266 -34.59609375 123.31894531 -33.6796875 123.32226562 C-24.63452845 123.24910625 -15.10069211 121.73958116 -8.234375 115.359375 C-3.02738483 109.5457452 -1.52026784 104.49504552 -1.6875 96.71875 C-2.32134026 91.20433978 -4.854307 88.12023316 -8.8125 84.25 C-14.59481071 80.16836891 -20.36119587 78.53508755 -27.1875 77.1875 C-47.0153957 73.0045834 -68.91750879 68.3056535 -81.7109375 51.28515625 C-85.36398804 44.80929394 -86.52951445 38.96150082 -86.4375 31.5625 C-86.42831543 30.30626831 -86.42831543 30.30626831 -86.41894531 29.0246582 C-86.26444748 22.93684923 -85.41171781 18.15239017 -82 13 C-81.64164063 12.38640625 -81.28328125 11.7728125 -80.9140625 11.140625 C-79.875 9.4375 -79.875 9.4375 -78 7 C-77.34 7 -76.68 7 -76 7 C-75.61134766 6.10087891 -75.61134766 6.10087891 -75.21484375 5.18359375 C-71.13302286 -2.15318399 -60.73219525 -6.32769248 -53.04345703 -8.57080078 C-34.70547887 -13.15017984 -15.52681309 -10.8825097 0 0 Z " fill="#FFFFFF" transform="translate(1932,443)"/>
<path d="M0 0 C0.72896484 -0.01224609 1.45792969 -0.02449219 2.20898438 -0.03710938 C6.0338391 -0.04762685 7.80606564 0.01654376 11.0625 2.1875 C12.16072306 4.67746407 13.1022961 7.09558258 13.98828125 9.66015625 C14.25835495 10.41606552 14.52842865 11.17197479 14.8066864 11.95079041 C15.67229758 14.38060707 16.5238097 16.81509888 17.375 19.25 C17.93592707 20.83170744 18.49776727 22.41309138 19.06054688 23.99414062 C21.30953314 30.32495484 23.53045334 36.66553178 25.74755859 43.00756836 C26.01803513 43.77898666 26.28851166 44.55040497 26.56718445 45.34519958 C27.07775446 46.80158074 27.58666136 48.25854644 28.09358215 49.71620178 C29.27842223 53.0942957 30.52442539 56.39149976 32.0625 59.625 C34.36925901 64.57076726 35.95676744 69.74491765 37.64501953 74.92529297 C39.44561848 80.42074327 41.39558093 85.84012783 43.4375 91.25 C47.75870588 102.7475379 51.39796725 114.46759796 55.0625 126.1875 C55.31418945 125.36137207 55.56587891 124.53524414 55.82519531 123.68408203 C56.77603311 120.57054579 57.73075467 117.45825288 58.68798828 114.34667969 C59.0986897 113.00892978 59.50791232 111.67072481 59.91552734 110.33203125 C62.04467166 103.34299734 64.23722224 96.437568 67.03955078 89.68212891 C69.11891116 84.61126868 70.9754787 79.45279219 72.875 74.3125 C73.31368408 73.12648193 73.75236816 71.94046387 74.2043457 70.71850586 C78.26383367 59.70583601 82.15569649 48.63968618 85.97265625 37.54101562 C86.59391851 35.73571588 87.21671607 33.93094374 87.84106445 32.12670898 C88.42384787 30.44253849 89.00340648 28.75724659 89.57885742 27.07055664 C91.21870388 22.33636104 93.08015448 17.7719368 95.15454102 13.21166992 C96.63200537 9.91786595 97.87035643 6.53671089 99.1328125 3.15625 C100.0625 1.1875 100.0625 1.1875 102.0625 0.1875 C104.74001418 0.08940142 107.38559717 0.0484603 110.0625 0.0625 C111.16851563 0.05669922 111.16851563 0.05669922 112.296875 0.05078125 C117.8091804 0.0608402 117.8091804 0.0608402 120.0625 1.1875 C119.41601757 6.23174473 117.95283142 10.62796525 116.16796875 15.3515625 C115.71873299 16.55897095 115.71873299 16.55897095 115.26042175 17.79077148 C114.26259322 20.4668289 113.25648704 23.13968823 112.25 25.8125 C111.5429194 27.70223185 110.83605559 29.59204482 110.12939453 31.48193359 C103.50383007 49.16092439 96.71668078 66.77864975 89.89135742 84.38134766 C85.85225648 94.81407709 81.8928146 105.25622064 78.24072266 115.83129883 C76.97460934 119.43785908 75.5877356 122.97442784 74.1328125 126.5078125 C73.24000753 128.74308333 72.38849767 130.98459737 71.5546875 133.2421875 C71.28785156 133.96398193 71.02101563 134.68577637 70.74609375 135.42944336 C70.21681924 136.86657067 69.69065295 138.30484746 69.16796875 139.74438477 C68.02570138 142.84142516 66.90337383 145.42618925 65.0625 148.1875 C62.99951172 148.52807617 62.99951172 148.52807617 60.4921875 148.48046875 C59.59628906 148.47080078 58.70039062 148.46113281 57.77734375 148.45117188 C56.84019531 148.42603516 55.90304687 148.40089844 54.9375 148.375 C53.99261719 148.36146484 53.04773437 148.34792969 52.07421875 148.33398438 C49.736384 148.29856264 47.39981989 148.24663077 45.0625 148.1875 C41.90309368 142.14551069 39.37513283 136.03696471 37.015625 129.64453125 C36.64072937 128.64024582 36.26583374 127.63596039 35.87957764 126.60124207 C34.6863767 123.40236476 33.49921936 120.20128678 32.3125 117 C30.75659118 112.81849506 29.19845947 108.63781909 27.640625 104.45703125 C27.25405731 103.418349 26.86748962 102.37966675 26.46920776 101.30950928 C23.39295392 93.05091542 20.2667974 84.81217742 17.12109375 76.57983398 C14.84866285 70.6328003 12.5922653 64.67972045 10.3359375 58.7265625 C9.52349488 56.58461365 8.71099464 54.44268666 7.8984375 52.30078125 C6.66272329 49.04339141 5.42740709 45.78585362 4.19335938 42.52783203 C2.97131656 39.30192766 1.74763636 36.07664922 0.5234375 32.8515625 C0.13589294 31.82838928 -0.25165161 30.80521606 -0.65093994 29.7510376 C-2.3396221 25.30932306 -4.04527055 20.87987523 -5.85839844 16.48730469 C-6.1432309 15.79551117 -6.42806335 15.10371765 -6.7215271 14.39096069 C-7.45705105 12.62071519 -8.20520282 10.85573023 -8.95458984 9.09130859 C-9.91904276 6.24202818 -10.15077996 4.16720738 -9.9375 1.1875 C-6.79347519 -0.3845124 -3.44802603 0.00303256 0 0 Z " fill="#FFFFFF" transform="translate(1471.9375,433.8125)"/>
<path d="M0 0 C2.81256281 -0.02684312 5.62487241 -0.04676188 8.4375 -0.0625 C9.64116211 -0.07506836 9.64116211 -0.07506836 10.86914062 -0.08789062 C12.91295221 -0.0965143 14.95683902 -0.0522815 17 0 C18.95098085 1.95098085 18.25415108 5.64674929 18.31640625 8.31640625 C18.33718735 9.04746078 18.35796844 9.77851532 18.37937927 10.53172302 C18.44495024 12.87521656 18.50379432 15.21882539 18.5625 17.5625 C18.60567808 19.14779855 18.64929213 20.73308529 18.69335938 22.31835938 C18.8006392 26.21212037 18.9018849 30.10599772 19 34 C19.77190674 33.98428955 20.54381348 33.9685791 21.33911133 33.95239258 C24.83016662 33.89010393 28.32110509 33.85102827 31.8125 33.8125 C33.02744141 33.78736328 34.24238281 33.76222656 35.49414062 33.73632812 C37.23920898 33.72182617 37.23920898 33.72182617 39.01953125 33.70703125 C40.09307861 33.6913208 41.16662598 33.67561035 42.27270508 33.65942383 C45 34 45 34 46.85327148 35.32666016 C48.67293431 37.98196546 48.32063285 40.40167999 48.25 43.5625 C48.23453125 44.71878906 48.2190625 45.87507813 48.203125 47.06640625 C48 50 48 50 47 52 C37.43 52 27.86 52 18 52 C18.06293966 65.30878309 18.1383685 78.61733512 18.23571491 91.9259119 C18.28042015 98.1057867 18.31967619 104.28559554 18.34643555 110.46557617 C18.37246661 116.43089195 18.41286825 122.39595397 18.46318626 128.36111259 C18.47985619 130.63561278 18.49136967 132.91015685 18.49761391 135.18470955 C18.50725332 138.37349096 18.5353119 141.56162294 18.56762695 144.75024414 C18.56619186 145.68820328 18.56475677 146.62616241 18.5632782 147.59254456 C18.6427604 153.14748871 19.3567542 157.08262698 22 162 C26.30670161 165.99378639 31.74176121 165.54970787 37.3125 165.6875 C38.24384766 165.72166016 39.17519531 165.75582031 40.13476562 165.79101562 C42.42305672 165.87315941 44.71098104 165.94241662 47 166 C47.50588147 167.91512272 48.00448391 169.83216922 48.5 171.75 C48.7784375 172.81734375 49.056875 173.8846875 49.34375 174.984375 C50 178 50 178 50 182 C45.58745611 184.94169592 41.50361768 184.32943124 36.3125 184.3125 C35.34376953 184.32861328 34.37503906 184.34472656 33.37695312 184.36132812 C22.13329358 184.36893033 14.30854127 180.11503346 5.6875 173.125 C-4.37959374 160.447919 -2.28806511 142.19944561 -2.23046875 126.921875 C-2.22927429 124.8167524 -2.22882435 122.71162927 -2.2290802 120.60650635 C-2.22752653 116.22608028 -2.2193165 111.84573724 -2.20581055 107.46533203 C-2.18869572 101.84295845 -2.1850004 96.22067464 -2.18575573 90.59827805 C-2.18548456 86.26614521 -2.18001391 81.93403211 -2.17275429 77.60190582 C-2.16956921 75.52699177 -2.16760059 73.45207548 -2.16686058 71.37715912 C-2.16470246 68.49326206 -2.15597342 65.60946223 -2.14526367 62.72558594 C-2.14594345 61.43688347 -2.14594345 61.43688347 -2.14663696 60.12214661 C-2.11449028 54.22898056 -2.11449028 54.22898056 -1 52 C-8.26 52 -15.52 52 -23 52 C-23.0928125 48.101875 -23.0928125 48.101875 -23.1875 44.125 C-23.21481201 43.30789551 -23.24212402 42.49079102 -23.27026367 41.64892578 C-23.29217134 39.763924 -23.14898777 37.87923237 -23 36 C-19.1308371 33.42055807 -15.9143521 33.74191063 -11.4375 33.8125 C-10.65697266 33.81314453 -9.87644531 33.81378906 -9.07226562 33.81445312 C-3.28115414 33.85942293 -3.28115414 33.85942293 -1 35 C-1.33 34.34 -1.66 33.68 -2 33 C-2.21102648 28.8950916 -2.18579648 24.78862027 -2.18530273 20.67871094 C-2.18748421 18.63976008 -2.20563067 16.60135475 -2.22460938 14.5625 C-2.22654297 13.27601563 -2.22847656 11.98953125 -2.23046875 10.6640625 C-2.23457764 9.48279785 -2.23868652 8.3015332 -2.24291992 7.08447266 C-2.01075286 4.13653428 -1.54396561 2.48059474 0 0 Z " fill="#FFFFFF" transform="translate(354,400)"/>
<path d="M0 0 C0.73734375 0.00773437 1.4746875 0.01546875 2.234375 0.0234375 C3.34039063 0.01183594 3.34039063 0.01183594 4.46875 0 C9.9810554 0.0201179 9.9810554 0.0201179 12.234375 2.2734375 C12.47938995 4.70520147 12.60762421 7.03208634 12.6484375 9.46875 C12.66780365 10.17619354 12.6871698 10.88363708 12.7071228 11.61251831 C12.76695152 13.87436835 12.81331601 16.1362692 12.859375 18.3984375 C12.89755186 19.9310119 12.93660342 21.46356478 12.9765625 22.99609375 C13.07265539 26.75503374 13.15667349 30.51407418 13.234375 34.2734375 C14.40009033 34.26558228 14.40009033 34.26558228 15.58935547 34.25756836 C19.09602049 34.23683594 22.60267263 34.22378929 26.109375 34.2109375 C27.94435547 34.19836914 27.94435547 34.19836914 29.81640625 34.18554688 C31.56630859 34.18071289 31.56630859 34.18071289 33.3515625 34.17578125 C34.96973877 34.16792603 34.96973877 34.16792603 36.62060547 34.15991211 C39.234375 34.2734375 39.234375 34.2734375 41.234375 35.2734375 C41.234375 40.8834375 41.234375 46.4934375 41.234375 52.2734375 C31.664375 52.2734375 22.094375 52.2734375 12.234375 52.2734375 C12.27472835 65.5649968 12.33183995 78.85619615 12.41827774 92.14753723 C12.45775011 98.31956022 12.48993999 104.49144058 12.50537109 110.66357422 C12.52053892 116.6224627 12.5549876 122.58095907 12.60268402 128.53967285 C12.61749635 130.81055285 12.62541593 133.08148884 12.62625885 135.35241699 C12.6286306 138.53875302 12.65572866 141.72400726 12.68847656 144.91015625 C12.6834462 145.84452011 12.67841583 146.77888397 12.67323303 147.74156189 C12.76493531 153.52637237 13.55879273 158.61132173 17.234375 163.2734375 C20.23354527 165.07321603 22.51605772 165.55350222 26 165.6875 C27.33417969 165.74550781 27.33417969 165.74550781 28.6953125 165.8046875 C29.61570312 165.835625 30.53609375 165.8665625 31.484375 165.8984375 C32.88816406 165.95644531 32.88816406 165.95644531 34.3203125 166.015625 C36.62480554 166.10968594 38.92929513 166.19533149 41.234375 166.2734375 C41.76851612 168.16556452 42.28615829 170.06235386 42.796875 171.9609375 C43.08691406 173.01667969 43.37695312 174.07242188 43.67578125 175.16015625 C44.23562267 178.28039132 44.08128264 180.25036984 43.234375 183.2734375 C33.93747955 186.37240265 19.47964499 185.72453804 10.59375 181.734375 C1.36971177 176.02280166 -4.80666493 169.19523778 -7.35784531 158.57144165 C-8.10437334 154.36445304 -8.02546727 150.17118936 -7.99267578 145.91015625 C-7.99296783 144.90437027 -7.99325989 143.89858429 -7.99356079 142.86231995 C-7.99217549 139.56176916 -7.97665199 136.26144851 -7.9609375 132.9609375 C-7.95720453 130.66308719 -7.9543589 128.36523529 -7.95236206 126.06738281 C-7.94474801 120.03728799 -7.92511866 114.00729044 -7.9029541 107.97723389 C-7.88244763 101.81686722 -7.87335009 95.65648475 -7.86328125 89.49609375 C-7.84187065 77.42182552 -7.80670666 65.34765484 -7.765625 53.2734375 C-14.695625 52.9434375 -21.625625 52.6134375 -28.765625 52.2734375 C-28.765625 46.6634375 -28.765625 41.0534375 -28.765625 35.2734375 C-26.05846258 34.37105003 -24.52785732 34.15492448 -21.75390625 34.17578125 C-20.61791992 34.18061523 -20.61791992 34.18061523 -19.45898438 34.18554688 C-18.28045898 34.19811523 -18.28045898 34.19811523 -17.078125 34.2109375 C-16.28083984 34.21544922 -15.48355469 34.21996094 -14.66210938 34.22460938 C-12.69658243 34.236379 -10.73109415 34.25431402 -8.765625 34.2734375 C-8.74580566 33.31453613 -8.72598633 32.35563477 -8.70556641 31.36767578 C-8.62958355 27.81532197 -8.5408557 24.26338174 -8.44824219 20.71142578 C-8.40992199 19.17309729 -8.37507444 17.63467825 -8.34375 16.09619141 C-8.29816441 13.88671474 -8.2401616 11.67786302 -8.1796875 9.46875 C-8.16813629 8.77911163 -8.15658508 8.08947327 -8.14468384 7.37893677 C-7.94417531 0.91540753 -6.37365017 0.0232615 0 0 Z " fill="#FFFFFF" transform="translate(2039.765625,399.7265625)"/>
<path d="M0 0 C1.36465267 0.00399021 2.7293066 0.01874032 4.09375 0.04296875 C4.78339844 0.04361328 5.47304688 0.04425781 6.18359375 0.04492188 C11.31263951 0.0899135 11.31263951 0.0899135 13.59375 1.23046875 C14.78721057 4.81085047 14.73214179 8.05857669 14.72073364 11.78417969 C14.72229363 12.56050121 14.72385362 13.33682274 14.72546089 14.13666916 C14.72945943 16.74607982 14.72628565 19.35543262 14.72314453 21.96484375 C14.72449908 23.83231643 14.72627931 25.69978884 14.72845459 27.56726074 C14.73302255 32.6456416 14.73124197 37.7240022 14.7280755 42.80238342 C14.72554863 48.11011816 14.72789036 53.41785113 14.72946167 58.72558594 C14.7312824 67.63997714 14.72887957 76.55436006 14.72412109 85.46875 C14.71867866 95.78374775 14.72044138 106.09872573 14.7259475 116.41372299 C14.73048136 125.26046798 14.73112783 134.10720701 14.72850883 142.95395279 C14.72694757 148.24188816 14.7267482 153.52981424 14.73004532 158.81774902 C14.73292798 163.78842598 14.73094102 168.75907739 14.72515106 173.72975159 C14.72382559 175.55713356 14.72421399 177.38451767 14.72641373 179.2118988 C14.72913355 181.70021445 14.72573381 184.18844747 14.72073364 186.67675781 C14.72296436 187.40525311 14.72519509 188.1337484 14.72749341 188.88431931 C14.7155007 191.94702345 14.57058977 194.29994944 13.59375 197.23046875 C10.61452407 197.25730862 7.63553705 197.27722912 4.65625 197.29296875 C3.80611328 197.30134766 2.95597656 197.30972656 2.08007812 197.31835938 C1.27119141 197.32158203 0.46230469 197.32480469 -0.37109375 197.328125 C-1.1199585 197.33336182 -1.86882324 197.33859863 -2.64038086 197.34399414 C-4.40625 197.23046875 -4.40625 197.23046875 -5.40625 196.23046875 C-5.50841191 193.73092732 -5.54512125 191.25886559 -5.53996277 188.75868225 C-5.54222833 187.9670298 -5.54449388 187.17537735 -5.54682809 186.35973543 C-5.55319734 183.68650507 -5.55233687 181.01332503 -5.55151367 178.34008789 C-5.55450334 176.43187901 -5.55790542 174.52367073 -5.56169128 172.61546326 C-5.57055496 167.41720364 -5.57287038 162.21896046 -5.57350707 157.02069402 C-5.57445416 152.68890343 -5.57813013 148.35711672 -5.58167917 144.02532762 C-5.58983268 133.80993323 -5.59226258 123.59454766 -5.59155273 113.37915039 C-5.59095166 102.82331211 -5.6015074 92.2675249 -5.6172964 81.71169955 C-5.63034907 72.66458681 -5.63573759 63.6174908 -5.63509732 54.57036871 C-5.63484167 49.16001846 -5.63772973 43.74971355 -5.64827538 38.33937263 C-5.65791826 33.25297668 -5.65806189 28.16666976 -5.65075874 23.08027077 C-5.64970814 21.20892966 -5.65210372 19.33758311 -5.6581192 17.46625137 C-5.66577535 14.92047397 -5.66123709 12.37500901 -5.65348816 9.82923889 C-5.65863172 9.08090272 -5.66377529 8.33256656 -5.66907471 7.56155354 C-5.63459528 2.46967652 -5.58361005 0.37779013 0 0 Z " fill="#FFFFFF" transform="translate(953.40625,384.76953125)"/>
<path d="M0 0 C2.62527189 -0.05382106 5.24944713 -0.09358313 7.875 -0.125 C8.62136719 -0.14175781 9.36773437 -0.15851563 10.13671875 -0.17578125 C12.09194461 -0.1933959 14.04742021 -0.10320189 16 0 C18.48770396 2.48770396 18.23983924 3.9366198 18.26282471 7.33108479 C18.25768115 8.07942095 18.25253759 8.82775712 18.24723816 9.59877014 C18.24965257 10.39198258 18.25206699 11.18519503 18.25455457 12.00244421 C18.26021506 14.6749703 18.25151085 17.34725984 18.24291992 20.01977539 C18.24399221 21.92975428 18.2459301 23.83973286 18.24867249 25.74971008 C18.25353211 30.94787206 18.2458515 36.14594859 18.23571944 41.34410024 C18.22695829 46.77289186 18.228696 52.20168065 18.2290802 57.63047791 C18.22814275 66.74756303 18.21944751 75.86461494 18.20581055 84.98168945 C18.19007947 95.53812371 18.18481256 106.09452157 18.1855461 116.6509667 C18.18615544 126.78721312 18.18105891 136.92344763 18.17275429 147.05969048 C18.16921423 151.38225841 18.16739001 155.70482212 18.16686058 160.02739143 C18.16585953 165.11214096 18.15978253 170.19685967 18.14969444 175.28159904 C18.14676188 177.15335781 18.14554559 179.02512013 18.14612198 180.8968811 C18.14660908 183.44069185 18.14099263 185.98441491 18.13371277 188.5282135 C18.13526137 189.27878039 18.13680997 190.02934728 18.1384055 190.80265862 C18.11417859 195.88582141 18.11417859 195.88582141 17 197 C15.65732587 197.08631874 14.31025678 197.10706473 12.96484375 197.09765625 C12.15595703 197.09443359 11.34707031 197.09121094 10.51367188 197.08789062 C9.66353516 197.07951172 8.81339844 197.07113281 7.9375 197.0625 C7.08349609 197.05798828 6.22949219 197.05347656 5.34960938 197.04882812 C3.23304337 197.03700373 1.11651315 197.01906769 -1 197 C-2.18819757 193.43540728 -2.14165469 190.20680911 -2.13371277 186.49771118 C-2.1371111 185.34147092 -2.1371111 185.34147092 -2.14057809 184.16187227 C-2.14692387 181.57095313 -2.14608836 178.98008622 -2.14526367 176.38916016 C-2.14825481 174.53478426 -2.15165723 172.68040899 -2.15544128 170.82603455 C-2.16429023 165.78264557 -2.16661978 160.73927354 -2.16725707 155.69587755 C-2.16820558 151.48853576 -2.17188322 147.28119793 -2.17542917 143.07385767 C-2.18357716 133.14884578 -2.18601309 123.22384297 -2.18530273 113.29882812 C-2.18470187 103.05429155 -2.19525463 92.80980762 -2.2110464 82.56528437 C-2.22411396 73.77540705 -2.22948696 64.98554696 -2.22884732 56.19566 C-2.2285921 50.94341583 -2.23145663 45.69121843 -2.24202538 40.43898392 C-2.25169314 35.49947017 -2.25179461 30.56004802 -2.24450874 25.62053108 C-2.24346125 23.80688786 -2.24583553 21.99323897 -2.2518692 20.17960548 C-2.25956886 17.70504738 -2.2549578 15.2308072 -2.24723816 12.7562561 C-2.25238172 12.03747744 -2.25752529 11.31869878 -2.26282471 10.57813895 C-2.23545962 6.61233325 -1.74571586 3.57324105 0 0 Z " fill="#FFFFFF" transform="translate(147,385)"/>
<path d="M0 0 C1 1 1 1 1.09765625 4.81640625 C1.09098089 6.39846682 1.07901875 7.98051159 1.0625 9.5625 C1.05798828 10.36880859 1.05347656 11.17511719 1.04882812 12.00585938 C1.03700518 14.00393756 1.01906914 16.00197783 1 18 C-0.7015625 18.07347656 -0.7015625 18.07347656 -2.4375 18.1484375 C-3.95835398 18.2235414 -5.47918625 18.29908584 -7 18.375 C-7.74378906 18.4059375 -8.48757813 18.436875 -9.25390625 18.46875 C-16.13609465 18.8278207 -22.45273579 20.05821234 -28.75 23 C-29.46671875 23.33 -30.1834375 23.66 -30.921875 24 C-31.95054688 24.495 -31.95054688 24.495 -33 25 C-33.72832031 25.33515625 -34.45664063 25.6703125 -35.20703125 26.015625 C-37.5640186 27.30965727 -37.85723767 28.58003272 -39 31 C-39.804375 31.86625 -40.60875 32.7325 -41.4375 33.625 C-47.05071026 40.22896054 -47.44400849 49.09319158 -47.41650391 57.39086914 C-47.42508926 58.37583374 -47.43367462 59.36079834 -47.44252014 60.37561035 C-47.46739417 63.59553371 -47.47194085 66.81514597 -47.4765625 70.03515625 C-47.49088392 72.28292267 -47.50664297 74.53068035 -47.52377319 76.77842712 C-47.56547248 82.66830725 -47.59057767 88.55813308 -47.61126709 94.44812012 C-47.64720584 103.90687967 -47.70791522 113.36550593 -47.76975632 122.82412529 C-47.78889262 126.13080176 -47.80058482 129.43744229 -47.81118774 132.74415588 C-47.8213919 134.75399863 -47.83174914 136.76384061 -47.84228516 138.77368164 C-47.84384865 140.16135994 -47.84384865 140.16135994 -47.84544373 141.57707214 C-47.88656436 147.88656436 -47.88656436 147.88656436 -49 149 C-50.33043625 149.0983721 -51.66593344 149.13078592 -53 149.1328125 C-53.804375 149.13410156 -54.60875 149.13539063 -55.4375 149.13671875 C-56.283125 149.13285156 -57.12875 149.12898437 -58 149.125 C-59.2684375 149.13080078 -59.2684375 149.13080078 -60.5625 149.13671875 C-61.366875 149.13542969 -62.17125 149.13414062 -63 149.1328125 C-63.7425 149.13168457 -64.485 149.13055664 -65.25 149.12939453 C-67 149 -67 149 -68 148 C-68.103083 146.13173696 -68.13521944 144.25954043 -68.14044189 142.38844299 C-68.14615204 141.16990631 -68.15186218 139.95136963 -68.15774536 138.69590759 C-68.15899084 137.3331605 -68.16011591 135.9704133 -68.16113281 134.60766602 C-68.16575861 133.18220897 -68.17078295 131.75675317 -68.17617798 130.33129883 C-68.18932598 126.44911665 -68.19575146 122.56695177 -68.20018864 118.6847508 C-68.20311518 116.26203441 -68.20721915 113.8393228 -68.21169281 111.41660881 C-68.22537335 103.84432832 -68.23503758 96.27205869 -68.2388947 88.6997667 C-68.24337859 79.9439203 -68.26093941 71.18822978 -68.2898953 62.4324308 C-68.31147373 55.67404563 -68.3215969 48.91570443 -68.32293582 42.15728515 C-68.32398651 38.11623049 -68.32995009 34.07532222 -68.34775543 30.03430367 C-68.36417029 26.23483461 -68.36642402 22.43562304 -68.35761642 18.63613129 C-68.35684252 17.23887635 -68.36123496 15.84160794 -68.37107468 14.44438744 C-68.38368681 12.54247995 -68.37616511 10.64047018 -68.36749268 8.73854065 C-68.36895924 7.67240319 -68.3704258 6.60626574 -68.3719368 5.50782108 C-68.24919765 4.68024013 -68.12645851 3.85265917 -68 3 C-64.41527958 0.61018639 -62.74646235 0.75989743 -58.5 0.8125 C-57.3553125 0.81894531 -56.210625 0.82539063 -55.03125 0.83203125 C-52 1 -52 1 -49 2 C-48.67 7.94 -48.34 13.88 -48 20 C-46.55625 18.35 -45.1125 16.7 -43.625 15 C-42.12996047 13.2913834 -40.59671399 11.61400692 -39 10 C-38.34 10 -37.68 10 -37 10 C-37 9.34 -37 8.68 -37 8 C-25.05058809 0.53530564 -13.8186371 -0.81841586 0 0 Z " fill="#FFFFFF" transform="translate(1829,433)"/>
<path d="M0 0 C1 1 1 1 1.09765625 4.81640625 C1.09098089 6.39846682 1.07901875 7.98051159 1.0625 9.5625 C1.05798828 10.36880859 1.05347656 11.17511719 1.04882812 12.00585938 C1.03700518 14.00393756 1.01906914 16.00197783 1 18 C-0.7015625 18.07347656 -0.7015625 18.07347656 -2.4375 18.1484375 C-3.95835398 18.2235414 -5.47918625 18.29908584 -7 18.375 C-7.74378906 18.4059375 -8.48757813 18.436875 -9.25390625 18.46875 C-16.13609465 18.8278207 -22.45273579 20.05821234 -28.75 23 C-29.46671875 23.33 -30.1834375 23.66 -30.921875 24 C-31.95054687 24.495 -31.95054687 24.495 -33 25 C-33.72832031 25.33515625 -34.45664062 25.6703125 -35.20703125 26.015625 C-37.5640186 27.30965727 -37.85723767 28.58003272 -39 31 C-40.2065625 32.3303125 -40.2065625 32.3303125 -41.4375 33.6875 C-46.95926703 40.20073756 -47.44332572 48.16193632 -47.41650391 56.36914062 C-47.42508926 57.36371277 -47.43367462 58.35828491 -47.44252014 59.38299561 C-47.46743403 62.64082065 -47.47194464 65.89833869 -47.4765625 69.15625 C-47.49088087 71.42786583 -47.50663938 73.699473 -47.52377319 75.97106934 C-47.56550659 81.92836802 -47.59058859 87.88561293 -47.61126709 93.84301758 C-47.64718019 103.40643694 -47.70791197 112.9697242 -47.76975632 122.53300476 C-47.78889709 125.87734947 -47.80058686 129.2216586 -47.81118774 132.56604004 C-47.82139226 134.59936605 -47.83174953 136.6326913 -47.84228516 138.66601562 C-47.84384865 140.0700766 -47.84384865 140.0700766 -47.84544373 141.50250244 C-47.88656582 147.88656582 -47.88656582 147.88656582 -49 149 C-50.33043625 149.0983721 -51.66593344 149.13078592 -53 149.1328125 C-53.804375 149.13410156 -54.60875 149.13539063 -55.4375 149.13671875 C-56.283125 149.13285156 -57.12875 149.12898437 -58 149.125 C-59.2684375 149.13080078 -59.2684375 149.13080078 -60.5625 149.13671875 C-61.366875 149.13542969 -62.17125 149.13414062 -63 149.1328125 C-63.7425 149.13168457 -64.485 149.13055664 -65.25 149.12939453 C-67 149 -67 149 -68 148 C-68.103083 146.13173696 -68.13521944 144.25954043 -68.14044189 142.38844299 C-68.14615204 141.16990631 -68.15186218 139.95136963 -68.15774536 138.69590759 C-68.15899084 137.3331605 -68.16011591 135.9704133 -68.16113281 134.60766602 C-68.16575861 133.18220897 -68.17078295 131.75675317 -68.17617798 130.33129883 C-68.18932598 126.44911665 -68.19575146 122.56695177 -68.20018864 118.6847508 C-68.20311518 116.26203441 -68.20721915 113.8393228 -68.21169281 111.41660881 C-68.22537335 103.84432832 -68.23503758 96.27205869 -68.2388947 88.6997667 C-68.24337859 79.9439203 -68.26093941 71.18822978 -68.2898953 62.4324308 C-68.31147373 55.67404563 -68.3215969 48.91570443 -68.32293582 42.15728515 C-68.32398651 38.11623049 -68.32995009 34.07532222 -68.34775543 30.03430367 C-68.36417029 26.23483461 -68.36642402 22.43562304 -68.35761642 18.63613129 C-68.35684252 17.23887635 -68.36123496 15.84160794 -68.37107468 14.44438744 C-68.38368681 12.54247995 -68.37616511 10.64047018 -68.36749268 8.73854065 C-68.36895924 7.67240319 -68.3704258 6.60626574 -68.3719368 5.50782108 C-68.24919765 4.68024013 -68.12645851 3.85265917 -68 3 C-64.41527958 0.61018639 -62.74646235 0.75989743 -58.5 0.8125 C-57.3553125 0.81894531 -56.210625 0.82539063 -55.03125 0.83203125 C-52 1 -52 1 -49 2 C-48.67 7.94 -48.34 13.88 -48 20 C-46.55625 18.35 -45.1125 16.7 -43.625 15 C-42.12996047 13.2913834 -40.59671399 11.61400692 -39 10 C-38.34 10 -37.68 10 -37 10 C-37 9.34 -37 8.68 -37 8 C-25.05058809 0.53530564 -13.8186371 -0.81841586 0 0 Z " fill="#FFFFFF" transform="translate(790,433)"/>
<path d="M0 0 C0.68964844 -0.00386719 1.37929687 -0.00773437 2.08984375 -0.01171875 C7.24666707 -0.00166646 7.24666707 -0.00166646 9.5 1.125 C9.5 49.635 9.5 98.145 9.5 148.125 C3.23 148.125 -3.04 148.125 -9.5 148.125 C-10.55312921 144.96561236 -10.62577296 142.74900384 -10.62698364 139.43151855 C-10.62980347 138.24533432 -10.63262329 137.05915009 -10.63552856 135.83702087 C-10.63350433 134.5340657 -10.6314801 133.23111053 -10.62939453 131.88867188 C-10.63074941 130.50395156 -10.63252984 129.1192316 -10.63470459 127.73451233 C-10.63926855 123.97220287 -10.63749361 120.2099208 -10.6343255 116.44761086 C-10.63179657 112.51320954 -10.63414094 108.57881059 -10.63571167 104.64440918 C-10.6375318 98.03686095 -10.63513115 91.42932388 -10.63037109 84.82177734 C-10.62492877 77.17882438 -10.62669154 69.53589809 -10.6321975 61.89294577 C-10.63673308 55.33492857 -10.63737699 48.77691941 -10.63475883 42.21890116 C-10.63319851 38.30030282 -10.63299561 34.38171704 -10.63629532 30.46311951 C-10.63918047 26.77941576 -10.63718644 23.09574645 -10.63140106 19.41204643 C-10.62944446 17.41235781 -10.63242191 15.41266629 -10.63552856 13.41297913 C-10.63270874 12.22679489 -10.62988892 11.04061066 -10.62698364 9.81848145 C-10.62660662 8.78536079 -10.62622959 7.75224014 -10.62584114 6.68781281 C-10.5 4.125 -10.5 4.125 -9.5 1.125 C-6.46570323 -0.39214839 -3.32398333 -0.01863916 0 0 Z " fill="#FFFFFF" transform="translate(1429.5,433.875)"/>
<path d="M0 0 C0.68964844 -0.00386719 1.37929687 -0.00773437 2.08984375 -0.01171875 C7.24666707 -0.00166646 7.24666707 -0.00166646 9.5 1.125 C9.5 49.635 9.5 98.145 9.5 148.125 C3.23 148.125 -3.04 148.125 -9.5 148.125 C-9.5 99.615 -9.5 51.105 -9.5 1.125 C-6.46570323 -0.39214839 -3.32398333 -0.01863916 0 0 Z " fill="#FFFFFF" transform="translate(1986.5,433.875)"/>
<path d="M0 0 C1.04027344 -0.01675781 2.08054687 -0.03351563 3.15234375 -0.05078125 C6.38085549 0.35224102 7.76828428 1.0403972 10.0625 3.3125 C10.0625 3.9725 10.0625 4.6325 10.0625 5.3125 C10.7225 5.3125 11.3825 5.3125 12.0625 5.3125 C14.75766853 9.3552528 14.96808016 12.56411013 14.0625 17.3125 C11.97843586 21.01363063 9.29048779 23.51596738 5.75 25.8125 C0.77142335 26.73874682 -4.05626658 26.36782606 -8.5 23.875 C-9.9375 22.3125 -9.9375 22.3125 -9.9375 20.3125 C-10.5975 20.3125 -11.2575 20.3125 -11.9375 20.3125 C-14.29443398 16.62979066 -14.44782686 13.61382642 -13.9375 9.3125 C-10.6665267 3.0724894 -7.23892221 0.02684396 0 0 Z " fill="#FFFFFF" transform="translate(1429.9375,383.6875)"/>
<path d="M0 0 C3.70236803 1.84411843 5.71795457 4.57693186 8 8 C8.79281752 11.93359461 8.82924562 15.52732634 6.83203125 19.07421875 C4.05554972 22.47879893 1.42902311 25.1759957 -3 26 C-7.8318913 26.13250159 -11.00697581 25.77714937 -14.875 22.75 C-19.79379845 16.38449612 -19.79379845 16.38449612 -20.4375 12.0625 C-19.77962192 7.45735342 -17.60392706 4.48734205 -14.2265625 1.35546875 C-9.90802477 -1.2735358 -4.86408562 -0.70880392 0 0 Z " fill="#FFFFFF" transform="translate(1993,384)"/>
</svg>
